<svg width="34" height="34" viewBox="0 0 34 34" fill="none" xmlns="http://www.w3.org/2000/svg">
<path d="M23.5375 32V27.7008C23.5951 26.9865 23.4961 26.2684 23.2467 25.5943C22.9973 24.9202 22.6035 24.3054 22.0913 23.791C26.9221 23.2667 31.999 21.4841 31.999 13.305C31.9985 11.2136 31.1723 9.20234 29.6913 7.68757C30.3925 5.85778 30.343 3.83525 29.5528 2.04014C29.5528 2.04014 27.7374 1.51584 23.5375 4.25716C20.0113 3.32664 16.2944 3.32664 12.7683 4.25716C8.56828 1.51584 6.7529 2.04014 6.7529 2.04014C5.96271 3.83525 5.91312 5.85778 6.61444 7.68757C5.12232 9.21357 4.29525 11.243 4.30676 13.35C4.30676 21.4691 9.38364 23.2517 14.2144 23.8359C13.7082 24.3453 13.3179 24.9525 13.0687 25.6184C12.8196 26.2843 12.7172 26.9939 12.7683 27.7008V32" stroke="#24292F" stroke-width="3" stroke-linecap="round" stroke-linejoin="round"/>
<path d="M12.7692 29.0057C8.15382 30.4635 4.30768 29.0057 2 24.5117" stroke="#24292F" stroke-width="3" stroke-linecap="round" stroke-linejoin="round"/>
</svg>
